<svg width="6730" height="6730" viewBox="0 0 6730 6730" fill="none" xmlns="http://www.w3.org/2000/svg">
<g clip-path="url(#clip0_40_50)">
<path d="M3310.04 1087.15C3884.9 627.12 4453.43 458.427 4855.95 690.844C5215.7 898.601 5376.7 1380.89 5309.07 2049.12C5303.35 2106.14 5295.36 2164.18 5286.51 2222.86L5231.24 2521.23C5231.01 2521.13 5230.77 2521.04 5230.53 2520.94C5230.33 2521.8 5230.13 2522.66 5229.92 2523.52L4950.32 2420.53L4950.29 2420.52L4950.26 2420.51L4950.11 2420.48C4950.14 2420.36 4950.17 2420.24 4950.19 2420.12C4759.43 2360.64 4564.98 2313.73 4368.09 2279.7L4365.26 2279.01L4365.24 2279.01L4365.21 2279L3972.21 2226.5L3971.88 2226.46L3971.76 2226.66C3971.31 2226.04 3970.87 2225.42 3970.42 2224.8C3751.01 2202.27 3530.59 2191.06 3310.04 2191.19C3089.02 2191.05 2868.15 2202.56 2648.35 2225.67C2519.76 2404.32 2400.34 2589.4 2290.56 2780.2C2180.22 2971.24 2079.95 3167.91 1990.14 3369.42C2079.95 3570.94 2180.22 3767.61 2290.56 3958.65C2400.51 4150.21 2520.3 4335.96 2649.44 4515.14C2649.63 4515.16 2649.83 4515.18 2650.03 4515.2L2649.71 4515.75L2649.54 4516.04L2649.75 4516.31L2895.75 4830.31L2895.77 4830.33L2895.78 4830.34L2897.44 4832.09C3024.75 4984.94 3161.87 5129.34 3307.93 5264.37L3310.28 5266.84L3310.3 5266.87L3310.33 5266.88L3538.34 5454.66C3537.58 5455.38 3536.82 5456.1 3536.06 5456.81C3536.36 5457.05 3536.67 5457.29 3536.98 5457.53L3292.82 5665.12L3292.37 5665.5L3292.51 5665.62C2897.26 5977.68 2505.94 6151.88 2170.13 6151.88C2027.97 6154 1887.81 6118.14 1764.13 6048.01C1404.37 5840.25 1243.37 5357.96 1311 4689.73C1316.89 4631.02 1324.96 4571.23 1334.34 4510.78C648.655 4242.35 217.999 3834.48 217.999 3369.42C217.999 2953.91 555.063 2572.88 1167.23 2297.69C1221.12 2273.46 1277.19 2250.33 1334.34 2228.51C1324.96 2167.84 1316.89 2107.82 1311 2049.12C1243.37 1380.89 1404.37 898.601 1764.13 690.844C2166.64 458.427 2735.17 627.12 3310.04 1087.15ZM1617.09 4608.33C1612.07 4645.86 1607.49 4682.75 1604 4719.41C1549.02 5255.03 1660.71 5645.58 1908.25 5791.19L1911.82 5792.89C2175.58 5945.22 2609.95 5824.1 3085.33 5456.81C2868.23 5252.37 2668.98 5029.77 2489.74 4791.42C2194.16 4755.45 1902.21 4694.19 1617.09 4608.33ZM1839.39 3741.29C1770.41 3929.89 1713.79 4122.78 1669.88 4318.73C1858.28 4377.33 2050.27 4423.66 2244.65 4457.46L2253.91 4459.49C2179.51 4346.23 2106.43 4227.08 2035.74 4106.18C1965.06 3985.28 1900.04 3863.28 1839.39 3741.29ZM1390.85 2522.68C1355.94 2537.23 1321.69 2551.78 1288.09 2566.33C796.134 2788.27 512.521 3080.92 512.521 3369.42C512.521 3673.86 834.749 3989.86 1390.63 4217.91C1459.18 3927.69 1552.31 3643.84 1669.01 3369.42C1552.53 3095.55 1459.47 2812.29 1390.85 2522.68ZM2252.81 2280.88C2055.81 2315.33 1861.23 2362.49 1670.32 2422.08C1713.5 2614.24 1768.9 2803.44 1836.18 2988.53L1838.3 2997.34C1899.83 2875.13 1964.18 2754.66 2034.65 2632.67C2105.12 2510.68 2178.2 2393.71 2252.81 2280.88ZM2172.97 881.797C2081.57 879.665 1991.23 901.803 1911.17 945.957C1662.57 1089.65 1549.68 1478.66 1603.36 2013.15L1603.34 2019.44C1606.83 2056.1 1611.41 2092.99 1616.43 2130.3C1901.66 2045.01 2193.58 1983.98 2489.09 1947.86C2668.42 1709.46 2867.82 1486.85 3085.11 1282.47C2744.12 1018.85 2424.07 881.797 2172.97 881.797ZM4709.56 945.739C4630.15 901.862 4540.58 879.721 4449.9 881.531L4447.54 881.579C4196.44 881.579 3876.39 1018.63 3535.4 1282.25C3752.55 1486.49 3951.8 1708.95 4130.99 1947.21C4426.57 1983.16 4718.53 2044.41 5003.64 2130.3C5008.88 2092.99 5013.24 2055.89 5016.95 2019.22C5071.49 1481.28 4959.36 1089.99 4709.56 945.739ZM3308.95 1472.12C3161.36 1608.36 3022.89 1754.16 2894.43 1908.58C3030.57 1899.85 3168.74 1895.49 3308.95 1895.49C3450.32 1895.49 3588.85 1900.29 3724.55 1908.58C3595.74 1754.13 3456.91 1608.32 3308.95 1472.12Z" fill="#D33AC0"/>
<path d="M3091.66 3286.18C3080.7 3271.43 3074.43 3253.74 3073.66 3235.39C3072.89 3217.03 3077.66 3198.87 3087.34 3183.27C3097.02 3167.66 3111.18 3155.32 3127.96 3147.86C3144.74 3140.39 3163.38 3138.15 3181.46 3141.41L6338.36 3636.95C6357.56 3639.98 6375.32 3648.99 6389.11 3662.68C6402.91 3676.38 6412.04 3694.07 6415.2 3713.25C6418.37 3732.43 6415.42 3752.12 6406.77 3769.52C6398.11 3786.93 6384.2 3801.17 6366.99 3810.22L5330.42 4353.4C5271.84 4384.03 5222.53 4429.8 5187.63 4485.94C5152.72 4542.08 5133.49 4606.54 5131.94 4672.63L5106.09 5842.93C5105.63 5862.36 5099.06 5881.15 5087.31 5896.64C5075.56 5912.13 5059.23 5923.52 5040.64 5929.2C5022.05 5934.88 5002.15 5934.56 4983.75 5928.29C4965.35 5922.02 4949.39 5910.11 4938.15 5894.26L3091.66 3286.18Z" stroke="#D33AC0" stroke-width="311.409" stroke-linecap="round" stroke-linejoin="round"/>
<path d="M3392.5 1293.74C3645.63 1497.24 3901.94 1752.09 4146.95 2048.94C4563.21 2080.2 4946.78 2150.81 5277.3 2252.59C5185.48 2791.78 4961.55 3416.17 4613.76 4037.37C4293.56 4609.27 3916.19 5093.08 3537.07 5447.28C3282.89 5243.34 3025.45 4987.6 2779.4 4689.49C2353.98 4657.54 1962.69 4584.49 1627.29 4479.07C1723.07 3948.82 1944.54 3339.4 2284.04 2733.02C2613.18 2145.14 3002.73 1650.35 3392.5 1293.74Z" fill="#D33AC0" fill-opacity="0.2"/>
<path d="M4044 2093.5L3365 1289.5C3365 1289.5 4237.44 550.702 4750.5 806C5295.07 1076.98 5130.5 2316.5 5130.5 2316.5L4044 2093.5Z" fill="#D33AC0" fill-opacity="0.2"/>
<path d="M2608.87 2091.92L1596.12 2377.93C1596.12 2377.93 1283.95 1278.14 1728.48 916.466C2200.3 532.574 3260.98 1194.73 3260.98 1194.73L2608.87 2091.92Z" fill="#D33AC0" fill-opacity="0.2"/>
<path d="M1806.46 3411.21L1385.08 4375.52C1385.08 4375.52 336.891 3919.16 339.301 3346.09C341.858 2737.83 1526.59 2337.95 1526.59 2337.95L1806.46 3411.21Z" fill="#D33AC0" fill-opacity="0.2"/>
<path d="M2624.96 4722.07L3340.31 5493.91C3340.31 5493.91 2502.87 6272.15 1978.58 6040.78C1422.09 5795.21 1529.33 4549.41 1529.33 4549.41L2624.96 4722.07Z" fill="#D33AC0" fill-opacity="0.2"/>
<path d="M4931 3396C4672.89 3971.39 4489.87 4277.73 4147 4758.5L5062 5889L5183.5 4457L6334.5 3705L4931 3396Z" fill="#D33AC0" fill-opacity="0.2"/>
<path d="M1819.5 3365L1510.5 2348L2418 2180L1819.5 3365Z" fill="#D33AC0" fill-opacity="0.2"/>
</g>
<defs>
<clipPath id="clip0_40_50">
<rect width="6730" height="6730" fill="white"/>
</clipPath>
</defs>
</svg>
